<?xml version="1.0" encoding="UTF-8" standalone="no"?>
<!-- Created with Inkscape (http://www.inkscape.org/) -->

<svg
   width="247.37151mm"
   height="173.57478mm"
   viewBox="0 0 247.37151 173.57478"
   version="1.1"
   id="svg1"
   xml:space="preserve"
   xmlns="http://www.w3.org/2000/svg"
   xmlns:svg="http://www.w3.org/2000/svg"><defs
     id="defs1" /><g
     id="layer1"
     style="fill:#ffffff"
     transform="translate(-24.50767,-19.656726)"><path
       style="fill:#ffffff"
       d="m 270.81567,75.643936 c -1.77792,1.164934 -3.96214,0.708242 -4.97985,-1.041222 -1.27003,-2.183199 -0.73995,-3.223178 1.84006,-3.610075 1.93414,-0.290042 2.22141,-0.207287 3.19023,0.919031 1.36722,1.589495 1.35067,2.814221 -0.0504,3.732266 z m -9.44297,8.012408 c -1.11745,1.11745 -1.70016,1.141081 -3.71661,0.150721 -1.99887,-0.981724 -2.03885,-1.046271 -3.42659,-5.532302 -1.76275,-5.698319 -1.78453,-5.686861 -4.99353,2.627295 -2.91282,7.546758 -3.90017,9.640536 -4.54469,9.63744 -1.53451,-0.0074 -4.06288,-1.084232 -4.62813,-1.971168 -0.35404,-0.555545 -1.27953,-3.69551 -2.05663,-6.9777 -1.84426,-7.789487 -2.68408,-10.282196 -3.98698,-11.833989 -2.45853,-2.928165 -1.67838,-6.757439 1.3767,-6.757439 2.00216,0 3.53663,1.274597 4.14503,3.443048 0.26715,0.952138 0.62922,1.754749 0.8046,1.78358 0.38691,0.0636 2.83432,-3.269918 7.46034,-10.161389 3.23233,-4.815286 3.56777,-5.164286 4.96362,-5.164286 1.86936,0 4.0124,1.858989 4.0124,3.480577 0,0.631501 -0.61972,2.47367 -1.37715,4.093708 -0.75742,1.620039 -1.37714,3.101972 -1.37714,3.293185 0,0.191213 0.94036,1.302379 2.0897,2.469257 1.38929,1.410507 2.15233,2.616563 2.27659,3.598372 0.50926,4.02398 1.2251,6.737845 2.00321,7.594574 2.08469,2.295301 2.46682,4.734961 0.97526,6.226516 z M 247.06034,68.376681 c -1.4307,1.795523 -2.37924,3.43169 -3.12191,5.385051 -0.66244,1.742348 0.39494,1.02062 2.45706,-1.677096 2.74932,-3.596735 3.38031,-7.11587 0.66485,-3.707955 z m -6.15019,-13.764473 c -0.63191,1.444327 -1.00378,1.638501 -4.04006,2.109492 -1.23785,0.192017 -5.97271,-0.604969 -7.73196,-1.301466 -0.60803,-0.240721 -0.96606,0.09363 -1.55553,1.452663 -1.7924,4.132326 -1.41463,3.831067 -4.80403,3.831067 -2.84747,0 -3.25026,-0.127129 -5.08672,-1.605488 -3.6389,-2.929329 -4.0601,-3.506347 -4.0601,-5.562062 0,-1.531835 0.22768,-2.056993 1.15531,-2.6648 1.45846,-0.95562 4.08003,-0.362061 5.91601,1.339468 0.68136,0.631466 1.52306,1.148121 1.87044,1.148121 0.72124,0 2.53443,-2.134695 2.53443,-2.98381 0,-1.096466 1.89857,-2.983809 3.00155,-2.983809 1.4444,0 4.34321,1.397962 4.34321,2.094528 0,0.695732 1.3064,1.801618 1.68318,1.424837 0.15611,-0.156115 0.0543,-0.560452 -0.2263,-0.898528 -0.63843,-0.769266 -0.40224,-3.744842 0.37124,-4.676824 1.36902,-1.649562 5.28943,-0.126159 6.70901,2.607 0.80786,1.555398 0.76996,4.727601 -0.0797,6.669611 z M 221.18001,95.48944 c -0.7163,1.022654 -2.49873,1.42297 -2.49873,0.561189 0,-0.252477 -0.69947,-0.459048 -1.55437,-0.459048 -1.33132,0 -1.66608,-0.235444 -2.33299,-1.640837 -1.16352,-2.451951 -1.31862,-4.402543 -0.34028,-4.279527 0.43163,0.05427 1.36117,-0.06193 2.06566,-0.25822 0.9243,-0.257541 1.50942,-0.150061 2.10186,0.386082 0.45154,0.408638 1.04817,0.742979 1.32585,0.742979 1.75272,0 2.52574,3.101735 1.233,4.947382 z m -6.59824,-49.934046 c -0.56949,0 -0.93858,0.369094 -1.03285,1.032857 -0.12861,0.905545 -0.37302,1.014032 -1.98288,0.880132 -2.3656,-0.196759 -3.54785,-0.981658 -5.49633,-3.649022 -2.16469,-2.963362 -2.45173,-4.46312 -1.12457,-5.875821 1.1864,-1.262865 1.66101,-1.32635 4.20888,-0.56299 1.42228,0.426126 2.32199,1.202351 4.06992,3.511316 2.39531,3.164121 2.83187,4.663528 1.35783,4.663528 z m -3.40375,24.59531 c -0.37221,0.142828 -1.32116,-0.07356 -2.10879,-0.480858 -1.75804,-0.909116 -2.09658,-0.716067 -3.32421,1.895593 -0.53446,1.137014 -1.97395,3.163876 -3.19888,4.504138 -3.2993,3.609969 -5.86004,3.725461 -9.86358,0.444859 -1.0605,-0.868998 -2.05126,-1.579996 -2.20169,-1.579996 -0.15044,0 -1.40788,0.923954 -2.79433,2.053232 -6.27809,5.113569 -9.4687,6.415236 -12.36086,5.04282 -4.32639,-2.053011 -4.31603,-8.088395 0.0272,-15.811532 2.23912,-3.981649 2.95823,-4.596901 5.37283,-4.596901 1.24212,0 1.98972,0.406881 3.47304,1.890196 1.03961,1.039608 1.90609,2.020822 1.92553,2.180476 0.0194,0.159654 0.0975,0.909995 0.1735,1.667423 0.076,0.757429 0.29609,2.467041 0.48908,3.799138 0.33923,2.341412 0.37985,2.395795 1.22103,1.634543 0.65584,-0.593531 0.79626,-1.133455 0.5702,-2.192471 -0.16496,-0.77276 -0.45529,-1.611591 -0.64518,-1.864067 -0.9034,-1.201137 -1.40643,-8.515354 -1.28515,-18.68645 l 0.12976,-10.882641 1.92454,-0.736194 c 1.77945,-0.680686 2.01307,-0.678194 3.09858,0.03306 0.76732,0.50277 1.17402,1.18797 1.17402,1.977975 0,0.664798 0.69625,3.378112 1.54722,6.029585 0.85097,2.651473 1.77733,5.853718 2.05859,7.116099 1.12101,5.031493 0.55285,10.816525 -1.41312,14.388392 -1.21547,2.208318 -1.29333,2.590521 -0.78013,3.829492 0.61189,1.477228 3.10524,2.971048 4.23525,2.537424 1.21835,-0.467525 3.18655,-3.507575 4.6983,-7.256907 1.81404,-4.499048 1.8386,-7.426224 0.0928,-11.067317 -1.92698,-4.01908 -1.95186,-4.351799 -0.38607,-5.161502 2.87994,-1.489273 4.48391,-0.632889 6.40365,3.418989 1.50295,3.17219 2.03627,5.770619 2.23833,10.905431 0.15132,3.845582 0.0613,4.755871 -0.49146,4.967975 z m -18.99814,-17.480073 -0.88299,-2.754285 -0.33894,3.901904 c -0.19666,2.264005 -0.13358,5.53475 0.15029,7.791767 0.26907,2.139424 0.48923,4.067423 0.48923,4.284444 0,0.967092 1.1763,-0.121926 1.43278,-1.326463 0.52562,-2.468554 0.0531,-9.079104 -0.85037,-11.897367 z m -10.01892,16.398331 c -1.1995,-1.712528 -2.24032,-1.265855 -3.77319,1.619287 -1.92535,3.623837 -2.24708,5.600058 -1.13523,6.973125 2.79665,3.45372 7.53546,-4.841782 4.90842,-8.592412 z m 1.13913,35.525688 c -3.3937,4.29014 -5.85279,5.73697 -8.24606,4.85164 -0.65552,-0.24249 -1.72702,-0.24008 -2.61789,0.006 -0.82948,0.22904 -1.68973,0.30421 -1.91165,0.16705 -0.54989,-0.33985 -5.38989,1.83965 -5.86145,2.63947 -0.44562,0.75581 -2.12668,1.701 -2.98825,1.68018 -0.37602,-0.009 -0.26766,-0.26899 0.28708,-0.68858 0.49009,-0.37068 0.63337,-0.67397 0.31841,-0.67397 -0.31496,0 -1.12909,0.60859 -1.80917,1.35241 -1.88738,2.0643 -6.84743,4.06641 -12.98673,5.24207 -0.60671,0.11618 -1.61953,0.42272 -2.25072,0.68119 -0.94888,0.38856 -0.9926,0.47499 -0.25248,0.49904 0.54531,0.0177 0.72471,0.18922 0.45905,0.43882 -0.73313,0.68877 -9.94717,4.23979 -10.48764,4.04185 -0.2786,-0.10204 -1.12626,0.19506 -1.88369,0.66021 -1.6165,0.99272 -1.47539,0.93011 -7.22941,3.20775 -2.46131,0.97428 -7.31574,3.03906 -10.78762,4.5884 -3.47187,1.54934 -8.17164,3.59325 -10.44393,4.54201 -2.27228,0.94876 -6.300424,2.69071 -8.951423,3.871 -2.651,1.18028 -6.059429,2.55239 -7.574286,3.04912 -1.514857,0.49674 -3.787143,1.51099 -5.049524,2.2539 -5.53913,3.25978 -15.376064,7.64663 -18.136316,8.08801 -1.349202,0.21574 -1.834495,0.0482 -2.875324,-0.99262 -0.688693,-0.68869 -1.252169,-1.72334 -1.252169,-2.29922 0,-1.07376 0.978865,-1.58288 5.738095,-2.98443 1.009905,-0.2974 3.075619,-1.11304 4.590477,-1.81252 1.514857,-0.69948 5.026571,-2.23799 7.803809,-3.41891 2.777238,-1.18092 6.392238,-2.77541 8.033333,-3.5433 1.641095,-0.7679 3.913381,-1.77188 5.049524,-2.23107 1.136143,-0.45918 3.360076,-1.47019 4.942074,-2.24668 1.581998,-0.77648 2.960408,-1.41179 3.063133,-1.41179 0.102727,0 2.320077,-0.99965 4.927447,-2.22144 2.60737,-1.2218 7.21954,-3.20575 10.24925,-4.4088 3.02971,-1.20304 8.50386,-3.39837 12.16476,-4.8785 3.66091,-1.48014 9.54819,-3.81979 13.08286,-5.19923 9.23121,-3.60257 11.27718,-4.43733 13.08286,-5.33781 0.88366,-0.44069 2.12309,-0.95823 2.75428,-1.1501 0.63119,-0.19187 2.84987,-1.13856 4.9304,-2.10376 2.08053,-0.96519 4.86924,-2.2113 6.19714,-2.76912 1.3279,-0.55783 2.93079,-1.35328 3.56198,-1.76769 0.63119,-0.4144 2.28377,-1.30007 3.67239,-1.96816 1.85599,-0.89294 2.76794,-1.67492 3.44285,-2.952184 1.04944,-1.98605 2.35813,-2.398141 4.06474,-1.279931 1.04775,0.686514 2.59145,3.220535 2.59145,4.253935 0,0.24272 -0.63525,1.24436 -1.41166,2.22586 z m -17.21561,-8.426546 c -1.15585,0.130281 -2.50221,0.132102 -2.9919,0.004 -1.02076,-0.266935 -3.9102,-5.784472 -4.36871,-8.34227 -0.48519,-2.706657 -0.95108,-3.237089 -1.52269,-1.733652 -0.27023,0.710746 -0.49133,1.477406 -0.49133,1.70369 0,0.884864 -3.93059,4.236409 -6.47414,5.520392 -2.22707,1.124218 -3.23914,1.353177 -5.98149,1.353177 -2.72222,0 -3.65605,-0.208162 -5.32714,-1.187484 -1.94534,-1.140043 -2.05182,-1.153797 -2.66526,-0.344286 -0.35143,0.463759 -0.64553,0.960959 -0.65356,1.104888 -0.0245,0.439134 -4.97539,7.948581 -5.78856,8.780001 -1.1835,1.21007 -3.26163,1.48771 -4.59518,0.61394 -1.31359,-0.8607 -2.8381,-3.14634 -3.22535,-4.835631 -0.14469,-0.63119 -0.57421,-1.842084 -0.95448,-2.690874 -0.85873,-1.916712 -0.89405,-4.560279 -0.0717,-5.365982 0.34084,-0.333944 1.22512,-0.671836 1.96505,-0.750871 1.09411,-0.116867 1.54415,0.14757 2.41,1.416089 0.58557,0.857885 1.06467,2.123729 1.06467,2.812987 0,0.689258 0.32781,2.037768 0.72847,2.996688 l 0.72848,1.743492 1.2121,-1.548778 c 0.66666,-0.851828 2.0947,-2.892556 3.17343,-4.534952 1.67011,-2.542789 1.96133,-3.338014 1.96133,-5.355794 0,-5.619318 4.60544,-6.625058 5.72528,-1.250291 0.17523,0.841057 0.98893,2.071556 1.89722,2.869047 1.90042,1.668586 4.41326,1.851849 7.31553,0.533528 1.65392,-0.751272 4.3415,-3.293323 4.34225,-4.107128 1.6e-4,-0.169985 -0.9837,-0.24079 -2.18634,-0.157343 -1.70305,0.118168 -2.46708,-0.06887 -3.45471,-0.845744 -1.60139,-1.259658 -2.62209,-3.673201 -2.62209,-6.200199 0,-1.652154 0.24368,-2.176056 1.54263,-3.316546 l 1.54263,-1.354447 2.47403,0.514906 c 1.36072,0.283198 2.96918,0.791526 3.57435,1.129618 l 1.10031,0.614714 -0.29079,-2.003202 c -0.15994,-1.101761 -0.71096,-6.651059 -1.2245,-12.331773 -0.51355,-5.680714 -1.1528,-10.839855 -1.42057,-11.464759 -0.41057,-0.958166 -0.32808,-1.264763 0.52652,-1.956775 1.61991,-1.311719 3.02722,-1.464987 4.38302,-0.477349 1.35586,0.987673 3.35321,5.192382 3.38155,7.118642 0.0101,0.6892 0.3238,2.031914 0.69703,2.983809 0.91269,2.32777 2.39647,8.895698 2.7762,12.288813 0.36604,3.270804 -0.60637,7.614841 -2.0481,9.149497 -0.52121,0.554797 -0.94765,1.483184 -0.94765,2.063081 0,0.951785 0.15283,1.025689 1.57087,0.759662 1.9346,-0.362932 2.33041,0.173736 1.64961,2.236606 -0.54956,1.665182 -0.66032,1.337842 2.57018,7.595914 1.67121,3.237438 1.49849,3.966555 -1.0065,4.248904 z m -6.25163,-32.48033 c -1.45665,-6.315021 -1.83923,-6.257846 -1.53582,0.229523 0.2641,5.646929 0.97766,11.898809 1.40707,12.328224 0.78224,0.782231 1.51255,-2.614491 1.26888,-5.901557 -0.10294,-1.388619 -0.616,-4.383905 -1.14013,-6.65619 z m -9.13733,16.159281 c -0.75175,0.751753 -0.0854,1.514051 1.32343,1.514051 h 1.22254 l -1.01501,-1.015005 c -0.75131,-0.75131 -1.14905,-0.880961 -1.53096,-0.499046 z M 117.9533,105.20421 c -0.88573,0.73509 -3.26126,-0.47966 -3.61989,-1.85107 -0.20415,-0.78068 -0.49082,-0.93549 -1.32073,-0.71322 -0.58298,0.15614 -2.3311,0.28671 -3.88471,0.29015 l -2.82474,0.006 -0.15907,4.24619 c -0.14731,3.93219 -0.27118,4.40765 -1.67507,6.42963 -2.84351,4.09541 -7.474304,5.21589 -11.000319,2.66166 l -1.866447,-1.35205 -1.659001,2.40879 c -1.837752,2.66834 -3.781857,4.04474 -5.860675,4.14929 -1.165924,0.0586 -1.465745,0.3433 -1.995539,1.89465 -0.762659,2.23323 -2.431945,3.75139 -4.564784,4.15152 -1.206361,0.22631 -1.621732,0.54485 -1.672822,1.28284 -0.03738,0.53997 -0.110082,1.29162 -0.161557,1.67034 -0.05147,0.37871 -0.124176,1.15358 -0.161558,1.72194 -0.03738,0.56835 -0.919161,1.85942 -1.95951,2.86904 -1.538605,1.49317 -2.219795,1.83568 -3.650781,1.83568 -0.967581,0 -2.292827,-0.24312 -2.944992,-0.54026 -1.093999,-0.49846 -1.353203,-0.37796 -3.349695,1.5573 -1.190167,1.15366 -2.874637,2.45528 -3.743267,2.8925 -1.319992,0.6644 -1.467289,0.8798 -0.897029,1.31175 0.896926,0.67938 2.246832,2.65403 2.246832,3.28668 0,0.27493 -0.42119,0.95196 -0.935977,1.50452 -0.716978,0.76959 -1.462496,1.00466 -3.186242,1.00466 -1.237645,0 -2.372071,0.19708 -2.520945,0.43797 -0.148874,0.24088 -0.480556,2.25495 -0.737071,4.47571 -0.636376,5.50938 -1.573312,10.36237 -3.261054,16.89108 -1.568447,6.06724 -2.104433,7.37822 -3.55223,8.68846 -0.923818,0.83604 -1.058238,0.84285 -2.554366,0.1294 -1.34541,-0.64159 -1.688246,-1.14622 -2.315516,-3.40833 -0.404957,-1.46039 -0.918343,-3.17168 -1.140857,-3.80287 -0.511323,-1.45042 -1.601952,-8.18534 -2.527445,-15.60761 -0.393519,-3.15596 -0.812174,-6.01698 -0.930344,-6.35783 -0.283088,-0.81654 -0.904647,-12.07965 -1.075601,-19.49069 -0.02801,-1.21417 -0.22962,-2.09713 -0.448027,-1.96215 -0.533111,0.32948 -0.94074,3.2178 -1.236327,8.76019 -0.134651,2.52476 -0.546865,7.2759 -0.916031,10.55809 -0.369165,3.2822 -0.779682,7.93005 -0.912258,10.32858 -0.246536,4.46022 -1.47737,15.513 -1.783603,16.01659 -0.161775,0.26603 -0.983914,9.31884 -1.341366,14.77019 -0.390853,5.96071 -4.254017,6.67765 -5.176451,0.96066 -0.242747,-1.50449 -0.215154,-20.74831 0.03032,-21.14549 0.227397,-0.36794 1.502306,-8.22571 1.869106,-11.52005 0.154612,-1.38862 0.573481,-4.28062 0.930819,-6.42667 0.357339,-2.14604 1.080611,-6.48404 1.607273,-9.64 0.526662,-3.15595 1.260077,-8.01038 1.629812,-10.78761 0.369735,-2.77724 0.986679,-6.80538 1.370986,-8.95143 0.384308,-2.14605 0.813989,-6.27748 0.954848,-9.18095 0.213987,-4.41084 0.102888,-5.85564 -0.675527,-8.78494 -0.512399,-1.92825 -1.136586,-3.890673 -1.387082,-4.360956 -0.884137,-1.659886 -3.748368,-9.808129 -3.748368,-10.663459 0,-0.476741 0.299147,-1.115072 0.664771,-1.418513 1.199225,-0.995268 3.089803,0.369196 4.106947,2.964057 0.494833,1.26238 1.304499,3.224809 1.799258,4.360952 l 0.899562,2.065714 0.322906,-1.417213 c 0.177598,-0.779468 0.457537,-1.635051 0.622086,-1.901297 0.164549,-0.266247 0.707075,-3.2435 1.205612,-6.61612 0.498538,-3.37262 1.140261,-7.268179 1.426052,-8.656798 0.285791,-1.388618 0.70091,-3.409906 0.922487,-4.49175 0.221576,-1.081843 0.518031,-2.940986 0.658788,-4.131428 0.227872,-1.927223 0.420405,-3.216046 1.378625,-9.228597 0.136352,-0.855573 0.336913,-1.69959 0.445689,-1.875594 0.108777,-0.176004 0.527032,-2.537436 0.929457,-5.247626 0.402424,-2.71019 0.933254,-5.457796 1.179621,-6.10579 0.246367,-0.647995 0.535255,-2.027835 0.641975,-3.066311 0.106719,-1.038477 0.720799,-4.951484 1.364623,-8.695572 0.643823,-3.744089 1.170588,-8.214132 1.170588,-9.93343 0,-4.006019 0.817534,-5.19774 3.213333,-4.684083 1.936976,0.415285 2.345745,1.160618 3.88444,7.082733 2.141934,8.243857 2.220562,10.327066 1.944751,51.525067 -0.141983,21.207999 -0.387879,38.896184 -0.546436,39.307084 -0.230828,0.59818 0.117093,0.80787 1.745607,1.05208 1.118641,0.16775 2.827278,0.70949 3.79697,1.20387 0.969693,0.49438 1.993249,0.89887 2.274569,0.89887 1.067333,0 2.492985,2.18242 3.005932,4.60155 1.150379,5.42534 3.086908,7.31992 4.489914,4.39265 0.794652,-1.65799 0.181953,-5.93607 -1.323414,-9.24056 -0.931977,-2.04581 -0.95789,-2.32311 -0.317777,-3.40055 0.869923,-1.46424 2.803049,-2.47039 4.010247,-2.08724 1.083084,0.34375 2.282816,2.47424 2.282816,4.05383 0,0.61576 0.399112,1.60723 0.886915,2.20327 l 0.886915,1.08372 0.719752,-1.70669 c 0.937797,-2.22372 0.914165,-4.70826 -0.06048,-6.35819 -0.754961,-1.27805 -0.745661,-1.35762 0.287172,-2.45702 1.276529,-1.3588 3.301012,-1.89212 4.581378,-1.20689 0.51086,0.27341 1.18183,1.34152 1.491045,2.37358 0.722852,2.41267 1.577676,2.71833 2.919266,1.04385 1.442476,-1.8004 1.690978,-3.76284 0.612991,-4.84083 -1.406732,-1.40673 -1.101047,-3.37225 0.697321,-4.48371 0.850348,-0.52554 2.053769,-0.95553 2.674267,-0.95553 1.552745,0 3.124407,1.79642 3.124407,3.57123 0,2.99632 4.21367,6.03016 6.06589,4.36743 2.27729,-2.04431 2.81941,-8.27506 0.90659,-10.41978 -1.909663,-2.141178 -4.677242,-6.570543 -4.677242,-7.48567 0,-1.009231 2.462847,-2.886545 3.786862,-2.886545 1.01384,0 3.45869,2.669396 4.02982,4.399937 0.57561,1.744119 1.87577,2.703834 4.11856,3.040124 3.18604,0.477723 3.46968,-0.360117 1.37714,-4.067895 -0.87783,-1.555428 -1.37714,-3.089471 -1.37714,-4.231003 0,-1.585504 0.17901,-1.875787 1.56128,-2.531715 1.9939,-0.946169 2.20047,-0.934273 3.65586,0.210537 0.87016,0.684464 1.20953,1.376492 1.20953,2.466408 0,0.833248 0.41943,2.463196 0.93207,3.622108 0.67899,1.534972 2.74031,9.553324 2.74031,10.659574 0,0.05 -0.29502,0.33578 -0.6556,0.63503 z m -57.736989,20.99862 c -0.303923,-0.55147 -0.562137,-1.31254 -0.573809,-1.69125 -0.02876,-0.93325 -2.097401,-1.11734 -3.234971,-0.28789 -0.777901,0.5672 -0.991321,1.53158 -1.401153,6.33136 -0.265909,3.11423 -0.396745,6.02374 -0.290746,6.46558 0.390076,1.62594 3.758028,0.48564 3.758028,-1.27236 0,-0.34814 0.264128,-0.79817 0.586951,-1.00007 1.564043,-0.9782 2.30533,-6.45935 1.1557,-8.54537 z M 52.802431,43.948727 C 52.60053,36.970689 51.786586,30.406823 51.123184,30.406823 c -0.168338,0 -0.571286,1.497643 -0.89544,3.328095 -0.586686,3.312925 -1.51395,7.88564 -2.396978,11.820476 -0.254965,1.136143 -0.529041,2.582142 -0.609057,3.213333 -0.290852,2.294322 -1.671963,9.382824 -1.900032,9.751848 -0.128763,0.208344 -0.425458,1.766052 -0.659323,3.461574 -0.580128,4.205948 -2.608906,14.865811 -3.469776,18.231338 -0.387486,1.514857 -0.75768,3.374 -0.822654,4.131428 -0.06497,0.757429 -0.394571,3.475185 -0.732438,6.039459 l -0.614304,4.662316 1.488751,1.695594 c 1.131102,1.288254 1.430862,1.98781 1.247782,2.911969 -1.409233,7.113567 -1.680455,28.025847 -0.509927,39.317327 0.392593,3.78714 0.903066,9.46785 1.134384,12.62381 0.231319,3.15595 0.701125,7.06994 1.044013,8.69776 l 0.623434,2.95966 0.932384,-1.353 c 2.291224,-3.32483 5.685848,-13.64613 5.685848,-17.28773 0,-1.92006 -0.386086,-3.36303 -1.606667,-6.00481 -1.280287,-2.77102 -1.606666,-4.04599 -1.606666,-6.27628 0,-3.46817 1.408291,-7.80028 3.436004,-10.56965 l 1.515464,-2.06976 0.329713,-25.706665 C 52.919041,79.846249 53.096032,68.244226 53.131012,68.202641 53.245024,68.067104 53.020283,51.478066 52.802431,43.948727 Z M 46.944537,166.32943 c -2.067828,2.34907 -2.346813,3.01393 -1.699585,4.0503 0.561144,0.89854 0.661003,0.79419 1.610738,-1.68321 1.280637,-3.34056 1.295552,-3.73791 0.08885,-2.36709 z m -17.341763,-6.47119 c -0.225464,0 -0.535321,0.32676 -0.688571,0.72612 -0.43092,1.12296 -0.337491,1.27133 0.409934,0.65103 0.76311,-0.63333 0.913607,-1.37715 0.278637,-1.37715 z m -0.508161,2.29524 c -0.252476,0 -0.473604,0.56807 -0.491395,1.26238 -0.01779,0.69431 -0.114302,2.29524 -0.214467,3.55762 -0.233681,2.94506 0.137052,2.15772 0.653361,-1.38757 0.219777,-1.50912 0.424784,-2.89879 0.455572,-3.08814 0.03079,-0.18936 -0.150594,-0.34429 -0.403071,-0.34429 z"
       id="path1" /></g></svg>
