<?xml version="1.0" encoding="UTF-8" standalone="no"?>
<!-- Created with Inkscape (http://www.inkscape.org/) -->

<svg
   width="297mm"
   height="210mm"
   viewBox="0 0 297 210"
   version="1.1"
   id="svg1"
   xml:space="preserve"
   xmlns="http://www.w3.org/2000/svg"
   xmlns:svg="http://www.w3.org/2000/svg"><defs
     id="defs1" /><g
     id="layer1"
     style="fill:#ffffff"><path
       style="fill:#ffffff;stroke-width:1"
       d="m 293.10137,33.728616 c -0.23365,0.13117 -1.09496,0.398123 -1.91403,0.593467 -1.75242,0.417886 -4.45781,-1.392946 -4.45781,-2.983812 0,-2.369373 4.00173,-3.926663 5.94531,-2.313644 0.87073,0.722662 1.19277,4.274111 0.42653,4.703989 z m -16.25814,6.615497 c -0.76483,0.290769 -2.67636,0.376383 -4.24789,0.190368 -3.05164,-0.361441 -3.27412,-0.130507 -2.00774,2.084906 0.44518,0.778768 0.81847,1.972225 0.8295,2.652152 0.0436,2.672656 -5.37832,2.372388 -7.35779,-0.407504 l -1.19447,-1.677519 -2.08565,1.534279 c -1.14712,0.843839 -2.20571,1.622153 -2.35243,1.729571 -0.14673,0.107456 0.003,0.37259 0.33756,0.589296 0.98466,0.641881 1.46517,3.531595 0.73382,4.412856 -0.90438,1.089743 -3.32158,0.999685 -4.61626,-0.171956 -1.74263,-1.577066 -2.98494,-0.320162 -2.98494,3.019973 0,1.518907 -0.20618,3.080263 -0.45822,3.469641 -0.51453,0.794958 -4.23803,0.945021 -5.3861,0.217123 -0.76833,-0.487168 -3.50104,-5.956114 -3.50104,-7.006564 0,-0.32363 -1.01948,-1.694424 -2.26553,-3.046221 -2.40538,-2.609532 -2.87449,-4.625169 -1.41597,-6.083709 0.46728,-0.467273 0.8496,-1.84776 0.8496,-3.067776 0,-1.410709 0.3608,-2.528116 0.99115,-3.069479 2.47944,-2.129461 3.25289,-1.792551 9.57006,4.168824 3.27344,3.089047 3.5817,3.250362 5.15965,2.700293 0.92301,-0.321772 2.37132,-1.308463 3.21841,-2.192635 l 1.54017,-1.607626 -1.26752,-1.180881 c -0.97089,-0.90452 -1.25839,-1.786261 -1.22843,-3.767622 0.0442,-2.920885 0.6559,-3.915126 2.88755,-4.693088 1.35228,-0.471432 2.07896,-0.190355 5.74211,2.221585 2.30664,1.518725 4.5262,2.761311 4.9323,2.761311 1.16565,0 0.8651,-1.461723 -0.67753,-3.295021 -1.67764,-1.993769 -1.76064,-3.326413 -0.31516,-5.059155 2.12756,-2.550296 5.16386,-0.862693 6.33274,3.519771 0.3353,1.257112 0.8389,2.871145 1.11913,3.5867 0.2802,0.715541 0.50947,2.569681 0.50947,4.12028 0,2.472348 -0.17107,2.884359 -1.39055,3.347995 z m -28.91099,5.46866 c -0.46727,-0.179181 -0.84958,-0.07926 -0.84958,0.222605 0,0.301736 0.38231,0.5486 0.84958,0.5486 0.46726,0 0.84956,-0.100305 0.84956,-0.222592 0,-0.1224 -0.3823,-0.369289 -0.84956,-0.548613 z m -4.85962,17.337941 c -0.97741,1.67813 -4.18722,1.302031 -5.57991,-0.653796 -0.64424,-0.904754 -1.17946,-2.242843 -1.18938,-2.973548 -0.0102,-0.73068 -0.40493,-1.838275 -0.87789,-2.461303 l -0.85989,-1.132765 -1.1007,1.415972 c -0.68102,0.876064 -1.06299,2.173678 -1.00178,3.40314 0.0557,1.120603 -0.35083,2.673605 -0.9324,3.561208 -1.00072,1.527274 -0.99956,1.598102 0.0389,2.384277 0.58864,0.445653 1.2227,0.818372 1.40904,0.828261 0.1862,0.01044 0.80837,1.059428 1.38233,2.332264 1.3587,3.013073 0.7093,4.136794 -2.52863,4.375382 -2.8187,0.207689 -3.6589,-0.37359 -5.07007,-3.507738 -1.12644,-2.501818 -6.31436,-9.277927 -10.16931,-13.282552 -3.51596,-3.652434 -3.87962,-6.488016 -0.92712,-7.229025 2.25634,-0.566324 3.95938,0.53536 6.17015,3.991345 1.10598,1.728895 2.28668,3.143438 2.62383,3.143438 0.82536,0 5.07558,-2.963724 6.46766,-4.510008 l 1.11957,-1.243549 -1.26115,-2.191296 c -1.48717,-2.583988 -1.59302,-4.102817 -0.37111,-5.324704 1.40647,-1.406486 3.9628,-1.104426 5.60045,0.661735 0.7914,0.853456 1.43889,1.992847 1.43889,2.531949 0,0.539076 0.63718,2.373194 1.41598,4.075751 0.77874,1.702584 1.41593,3.374815 1.41593,3.716051 0,0.341276 0.37606,0.764774 0.83567,0.941149 1.04082,0.399396 2.56845,3.382038 2.54542,4.969838 -0.009,0.653042 -0.27701,1.633379 -0.59453,2.178524 z m -20.76456,14.582114 c -0.33373,2.766729 -1.05352,3.400568 -3.86167,3.400568 -2.30895,0 -2.61007,-0.198698 -5.45288,-3.599473 -1.65495,-1.979724 -3.3126,-4.082431 -3.68367,-4.67265 -1.05759,-1.682301 -0.95072,10.945284 0.13664,16.157816 0.84553,4.052921 0.83677,4.24446 -0.24324,5.32447 -1.0054,1.005389 -1.30523,1.043772 -2.92236,0.373929 -1.07737,-0.446278 -2.01789,-1.365818 -2.33896,-2.286787 -0.36643,-1.051178 -1.05632,-1.644256 -2.17231,-1.867433 -2.52182,-0.504397 -3.02736,-2.111387 -2.88621,-9.174952 0.10942,-5.474858 -0.0527,-6.749018 -1.26837,-9.979214 -0.76659,-2.036661 -1.66412,-4.186366 -1.99445,-4.777131 -0.33035,-0.590765 -1.63657,-3.20695 -2.90268,-5.813703 -2.2456,-4.623468 -6.05405,-10.835983 -6.64274,-10.835983 -0.16186,0 -0.12967,0.57347 0.0717,1.274355 0.20112,0.700912 0.51242,2.357576 0.69158,3.681514 0.2701,1.995744 0.16515,2.40712 -0.61415,2.40712 -1.01342,0 -3.13295,-4.231452 -4.28384,-8.552445 -0.36509,-1.37061 -1.06691,-2.943636 -1.55965,-3.495602 -0.81759,-0.91585 -0.81378,-1.175734 0.0434,-2.973508 1.6399,-3.438925 3.14363,-2.669512 8.4826,4.340313 2.46739,3.239538 7.07435,11.118125 8.67604,14.837333 1.07037,2.485431 1.22819,2.630999 1.5498,1.429537 0.19695,-0.73576 0.36158,-2.148899 0.36584,-3.140319 0.007,-1.313805 0.3215,-1.902179 1.16486,-2.169858 1.09181,-0.346512 1.15247,-0.776677 1.07468,-7.618768 -0.0739,-6.499711 -1.23324,-15.947241 -3.34271,-27.240195 -1.06302,-5.690869 -0.60277,-7.328907 2.0592,-7.328907 2.78164,0 3.28629,2.699445 4.65874,24.920899 0.54153,8.767514 2.51946,20.444101 3.88567,22.938563 1.44281,2.634339 5.68403,8.039381 7.31503,9.322313 0.96937,0.76254 2.31051,1.155776 3.94165,1.155776 2.66795,0 2.5562,-0.21581 2.05227,3.962422 z m -16.52541,-9.767849 c -0.0775,-0.717205 -0.98669,-0.470093 -1.04173,0.283195 -0.62888,8.604445 -0.66474,10.619679 -0.18905,10.619679 0.48811,0 0.8352,-1.639668 1.3188,-6.230212 0.12707,-1.207022 0.0933,-2.99765 -0.088,-4.672662 z M 181.6582,23.70681 c -2.34024,2.302586 -4.39629,4.186495 -4.56894,4.186495 -0.17261,0 -3.63872,2.803592 -7.70228,6.230238 -4.06355,3.426619 -7.67844,6.220647 -8.03308,6.20894 -0.73327,-0.02404 1.35341,-1.909453 9.83329,-8.884169 7.33711,-6.034815 12.42347,-10.766199 12.01404,-11.175626 -0.16976,-0.169759 -1.34948,-0.3044 -2.62151,-0.299076 -6.96173,0.02917 -31.38819,9.046649 -44.44774,16.408729 -2.05814,1.160246 -6.92798,3.767557 -10.82188,5.794005 -9.18662,4.780937 -11.84615,6.28012 -16.99154,9.578194 -2.33633,1.497546 -6.15941,3.912254 -8.495751,5.366076 -2.336332,1.453784 -4.885055,3.077912 -5.663836,3.609153 -0.778769,0.531241 -4.729302,3.211784 -8.778936,5.956762 -4.04966,2.744991 -8.509916,5.929489 -9.91174,7.076663 -1.401808,1.147175 -4.157432,3.167542 -6.123623,4.489661 -1.966181,1.322146 -3.699453,2.728516 -3.851705,3.125261 -0.264453,0.689203 2.035491,11.678016 3.22585,15.412726 0.312228,0.979545 1.057548,1.909129 1.656265,2.065688 1.760597,0.460401 17.70652,-0.637268 26.899001,-1.851671 8.463235,-1.118069 12.265205,-1.741175 24.637705,-4.037901 6.24803,-1.159843 14.99885,-2.458015 20.38982,-3.02482 1.40181,-0.147373 4.97002,-0.528565 7.92939,-0.847063 2.95936,-0.318472 5.72949,-0.583476 6.15585,-0.588867 0.53287,-0.0065 0.34099,-0.585243 -0.61385,-1.850568 -2.23135,-2.957007 -2.88754,-5.450235 -1.85083,-7.032446 0.56352,-0.860043 1.41596,-1.321717 2.44053,-1.321717 2.01547,0 6.32874,3.133862 6.32874,4.598261 0,1.969523 1.50591,4.774869 4.17841,7.783942 1.44,1.621399 2.61821,3.430725 2.61821,4.020723 0,1.773957 2.7967,3.580359 4.80531,3.103769 3.17567,-0.75347 4.44804,-0.419159 6.36469,1.672283 2.2253,2.428235 2.29188,3.135775 0.45705,4.859465 -1.27479,1.19762 -1.75252,1.28543 -5.35177,0.98367 -4.30407,-0.36083 -5.74603,-0.91557 -8.10968,-3.11986 l -1.55117,-1.44663 -3.60164,3.35657 c -1.98086,1.84612 -3.77268,3.93005 -3.98182,4.63095 -0.24856,0.83302 -0.82312,1.27437 -1.65905,1.27437 -1.12884,0 -5.34635,2.71999 -8.61133,5.55372 -0.62303,0.54071 -2.78943,1.98012 -4.81427,3.19867 -2.02483,1.21855 -3.83821,2.44697 -4.02975,2.72983 -0.19148,0.28285 -0.87319,0.80982 -1.51477,1.17105 -0.64154,0.3612 -4.11507,2.5683 -7.71892,4.90464 -7.63818,4.9517 -12.62295,7.94131 -16.18853,9.709 -1.40178,0.69496 -3.82309,2.21073 -5.38064,3.36838 -1.55758,1.15764 -5.76295,3.69755 -9.345337,5.64422 -3.582374,1.94667 -6.895742,3.8519 -7.363003,4.23382 -0.467247,0.38195 -2.554687,1.6059 -4.638722,2.71992 -6.340826,3.38947 -6.148886,3.20118 -5.864508,5.75212 0.139264,1.24982 0.655641,6.09548 1.147382,10.76814 0.491701,4.67266 1.156867,10.78961 1.478119,13.59321 0.32124,2.8036 0.674587,6.75939 0.785214,8.79064 0.197385,3.62237 1.484513,7.93443 2.870847,9.61684 0.385024,0.46728 0.872257,1.90091 1.082713,3.18587 0.342406,2.09035 0.221618,2.46296 -1.147487,3.5399 -0.841578,0.66199 -1.987012,1.20361 -2.545423,1.20361 -1.279656,0 -3.508452,-2.76879 -3.095374,-3.84527 0.170422,-0.4439 0.06471,-1.73558 -0.234768,-2.87039 -0.544313,-2.06267 -1.946122,-17.75007 -2.588431,-28.96653 -0.340536,-5.94717 -1.331358,-14.83698 -1.694099,-15.19972 -0.105765,-0.10578 -0.913331,0.30905 -1.79448,0.92194 -0.881133,0.61286 -4.787983,2.97056 -8.681863,5.23932 -3.893906,2.26875 -7.692334,4.52963 -8.440964,5.02417 -2.713691,1.79265 -5.016272,3.21141 -9.150782,5.63838 -2.317729,1.3605 -5.1061,3.0434 -6.196393,3.73976 -2.331815,1.48933 -8.824159,5.45917 -13.320931,8.14532 -1.74783,1.04407 -3.048533,2.02765 -2.890468,2.18573 0.15813,0.15808 1.002997,-0.2014 1.877602,-0.79886 1.71197,-1.16952 19.54053,-9.97997 21.413596,-10.58211 0.922638,-0.29661 0.870088,-0.15497 -0.283181,0.76347 -0.778791,0.6202 -1.611465,1.13331 -1.850384,1.14023 -0.23896,0.007 -2.277934,1.12874 -4.531075,2.4929 -2.253166,1.36417 -6.135626,3.55902 -8.627725,4.8774 -2.492085,1.31842 -4.785942,2.5927 -5.097465,2.83175 -0.311501,0.23903 -2.860223,1.64386 -5.66382,3.1218 -2.803617,1.47797 -7.29414,3.93013 -9.978949,5.44927 -2.684813,1.51914 -5.0385606,2.76206 -5.2305326,2.76206 -0.1919042,0 -1.5917408,0.76462 -3.1105567,1.69915 -3.441709,2.11772 -5.03825231,2.1975 -5.52055983,0.27585 -0.45835912,-1.82625 0.39971143,-2.83256 3.63600413,-4.26413 1.4213734,-0.62874 3.4096656,-1.77269 4.4184536,-2.54212 1.0087867,-0.76943 2.0422914,-1.40694 2.2967244,-1.41668 1.081667,-0.0414 6.336784,-2.96172 12.956116,-7.19978 0.60482,-0.38724 3.011227,-1.83122 5.347561,-3.20883 4.347224,-2.56337 7.493523,-4.53609 11.5694,-7.25401 2.774771,-1.8503 5.272225,-3.33363 9.244592,-5.49078 1.635104,-0.88793 3.801536,-2.23961 4.814271,-3.00373 1.012747,-0.76412 3.498025,-2.33374 5.52286,-3.48805 2.024808,-1.15429 5.465592,-3.23805 7.646165,-4.63057 2.180598,-1.39251 5.171201,-3.1689 6.645831,-3.9475 l 2.681126,-1.41568 -0.333298,-3.53502 c -0.183364,-1.94426 -0.688736,-5.31913 -1.123121,-7.49971 -0.434384,-2.18058 -0.790014,-4.55921 -0.790253,-5.28583 -6.88e-4,-1.94185 -7.425905,-33.63489 -8.459694,-36.10847 -0.456716,-1.0928 -0.967692,-1.1849 -6.838808,-1.23235 -3.489874,-0.0283 -7.656159,-0.35607 -9.258422,-0.72857 -3.154372,-0.73333 -6.02828,-2.94703 -6.02828,-4.643415 0,-1.787718 3.331472,-5.339049 10.342472,-11.024975 4.967667,-4.028779 6.606723,-5.670073 6.331076,-6.339747 -0.204626,-0.496951 -2.118067,-6.893091 -4.252212,-14.213577 -2.13413,-7.320527 -4.527644,-15.042021 -5.318895,-17.158891 -0.791236,-2.116857 -1.438602,-4.219577 -1.438602,-4.672662 0,-1.382111 2.701127,-0.983573 3.703637,0.546456 0.952287,1.453367 6.144141,17.535534 7.694339,23.833819 1.287103,5.229384 2.909895,9.911701 3.435185,9.911701 0.309779,0 1.240728,-0.523407 2.068775,-1.163131 6.367723,-4.919552 6.651805,-5.117756 21.612172,-15.078884 4.205401,-2.800109 8.464556,-5.579754 9.464812,-6.177002 1.00023,-0.597248 5.205631,-3.10173 9.345341,-5.565527 4.13969,-2.463771 8.16389,-4.883833 8.94266,-5.3779 2.74271,-1.739953 17.92685,-9.743303 25.20408,-13.284694 20.53219,-9.991806 38.42811,-15.583444 43.56526,-13.612152 1.66233,0.637895 0.91324,2.027442 -3.35909,6.231011 z m -20.15855,70.927792 -1.75821,-2.739898 h -6.50262 -6.5026 l 1.93016,2.690327 c 1.0616,1.479667 2.2438,3.784682 2.62714,5.122278 0.38334,1.337611 1.38431,3.188081 2.22436,4.112201 l 1.52738,1.68021 4.10629,-3.73431 c 2.25845,-2.053878 4.10628,-3.882045 4.10628,-4.062616 0,-0.180506 -0.79117,-1.561226 -1.75818,-3.068192 z m -15.79973,6.823318 c 0,-0.31958 -1.01947,-1.790098 -2.26554,-3.267842 -1.40223,-1.662966 -2.26553,-3.261017 -2.26553,-4.193733 0,-1.330669 -0.18224,-1.475924 -1.55755,-1.24165 -0.85668,0.145853 -3.34168,0.505591 -5.52225,0.799338 -2.18057,0.293757 -7.91521,1.174122 -12.74363,1.956321 -4.82843,0.782211 -12.0923,1.946121 -16.14194,2.58647 -4.04965,0.640348 -8.892256,1.419778 -10.761326,1.732066 -1.869044,0.31227 -6.456767,0.82096 -10.194894,1.1304 -12.721894,1.05311 -13.8764,1.22889 -13.8764,2.11298 0,0.45393 0.359329,2.13894 0.798541,3.74442 0.439189,1.60551 1.859642,7.50681 3.156551,13.11402 1.296911,5.60719 2.834133,12.2339 3.416023,14.72598 0.581903,2.49209 1.491204,7.33468 2.020665,10.7613 0.529462,3.42662 1.135884,6.4266 1.347626,6.66662 0.211627,0.24002 2.139129,-0.71574 4.283129,-2.12394 2.144,-1.40818 4.419886,-2.56474 5.057531,-2.57012 0.637619,-0.006 1.76594,-0.64922 2.507352,-1.43075 0.889655,-0.93776 1.708196,-1.30665 2.407132,-1.08481 1.349939,0.42844 1.348938,-0.19761 -0.0026,-1.68604 -0.584009,-0.6431 -1.493843,-2.49917 -2.021822,-4.12458 -1.047631,-3.22513 -2.666485,-12.69253 -2.787455,-16.30175 -0.07029,-2.09942 0.04431,-2.27925 1.564047,-2.45269 1.012002,-0.11539 2.24752,0.26199 3.22657,0.98585 0.88551,0.65466 1.733561,0.93519 1.919187,0.63482 0.538855,-0.87186 0.199594,-4.63837 -0.661204,-7.34006 -0.769438,-2.41509 -0.748116,-2.55924 0.573601,-3.88094 1.208387,-1.2084 1.531927,-1.28748 2.703113,-0.66069 0.731743,0.39162 3.211393,2.71151 5.510353,5.15532 2.29898,2.44379 4.45627,4.44329 4.79404,4.44329 1.061,0 4.0186,-2.3082 5.64003,-4.40167 2.01409,-2.6004 1.97931,-4.67118 -0.14167,-8.4292 -0.93455,-1.6559 -1.69916,-3.38245 -1.69916,-3.83679 0,-0.86877 2.08225,-2.5894 3.13362,-2.5894 1.20872,0 4.11197,3.44447 4.45801,5.28907 0.19367,1.03242 0.69664,2.34822 1.11763,2.92399 0.72591,0.99274 1.0038,0.90717 5.37346,-1.65457 4.68179,-2.74476 5.30989,-3.5717 3.71699,-4.89371 -0.49004,-0.40668 -1.41252,-1.76173 -2.04996,-3.0112 l -1.15898,-2.271804 1.26313,-1.022801 c 1.78858,-1.448326 3.52698,-1.269925 5.21121,0.534736 2.19946,2.356744 4.42189,6.191669 4.4246,7.634929 0.002,1.23015 1.7039,4.14309 4.34799,7.44341 l 1.23534,1.54188 3.30296,-2.37967 3.30293,-2.37969 -2.9807,-3.05303 c -1.6394,-1.67918 -2.98071,-3.31452 -2.98071,-3.63408 z m -8.79259,8.53468 c -0.47576,-0.92003 -1.13168,-1.67276 -1.45761,-1.67276 -1.0346,0 -5.30471,2.73418 -6.82574,4.37058 -2.27063,2.4428 -2.4044,4.59053 -0.43205,6.9357 0.90709,1.07852 1.64924,2.57651 1.64924,3.32884 0,1.31354 0.0957,1.2799 2.40712,-0.84622 1.32392,-1.21778 4.01245,-3.18774 5.97451,-4.37772 l 3.56739,-2.16359 -2.00895,-1.95105 c -1.10487,-1.07307 -2.39817,-2.70377 -2.87391,-3.62378 z m -9.05609,14.52167 c -1.17733,0.29552 -1.81476,-0.07 -3.68582,-2.11313 -1.24424,-1.35874 -2.40494,-2.91646 -2.5793,-3.4616 -0.47389,-1.48155 -1.42452,-1.18592 -3.79085,1.17891 l -2.13419,2.13282 1.70004,1.25688 c 2.46812,1.82477 3.6383,4.29759 2.72541,5.75936 -1.03247,1.65326 -2.96567,1.40952 -6.6705,-0.84104 -1.79479,-1.09029 -3.45367,-1.98235 -3.68632,-1.98235 -1.03532,0 -8.35571,5.97925 -8.82202,7.2058 -0.58772,1.54578 -0.69209,5.84237 -0.1748,7.19066 0.53474,1.39352 1.21978,1.10735 4.63434,-1.93601 1.74756,-1.55756 3.61498,-2.83192 4.14986,-2.83192 0.53488,0 1.05748,-0.2062 1.16132,-0.45817 0.30701,-0.74505 6.36636,-3.95398 7.00975,-3.71224 0.3249,0.12202 1.93865,-0.92862 3.58612,-2.33488 1.6475,-1.40628 3.29321,-2.5578 3.65719,-2.55897 0.76776,-0.002 4.34322,-2.1009 4.34322,-2.54908 0,-0.16627 -0.64059,-0.14153 -1.42355,0.0549 z m -23.54081,-3.40045 c -0.95844,-0.80646 -1.97793,-1.4663 -2.26553,-1.4663 -0.28763,0 -0.52291,1.27437 -0.52291,2.83192 0,1.55755 0.11889,2.83192 0.26396,2.83192 0.6712,0 4.26711,-1.95513 4.26711,-2.32009 0,-0.22613 -0.78419,-1.07099 -1.74263,-1.87745 z M 63.640728,91.452352 c -0.886581,-3.514158 -1.756521,-6.533924 -1.933191,-6.710596 -0.708445,-0.708448 -11.066441,8.259595 -12.384717,10.722782 -0.682923,1.276071 -0.290338,1.716955 2.300283,2.583066 2.124604,0.710331 13.656401,0.895411 13.63996,0.218889 -0.0068,-0.233624 -0.73574,-3.30001 -1.622335,-6.814167 z M 152.94812,47.422595 c -2.89623,2.404664 -6.31199,5.333657 -7.59058,6.508845 -1.27859,1.175202 -3.57247,2.848082 -5.09747,3.717533 -1.52501,0.86945 -3.47096,2.221442 -4.32435,3.004407 -0.85342,0.782977 -1.74335,1.231879 -1.97765,0.997605 -0.23426,-0.234299 -0.009,-0.659201 0.50021,-0.944292 0.50939,-0.285079 1.93962,-1.349173 3.17827,-2.364658 1.23867,-1.015485 2.84234,-2.228641 3.56373,-2.695914 0.72137,-0.467261 2.34749,-1.763224 3.61359,-2.87989 4.20165,-3.705812 12.83262,-10.283224 13.11857,-9.997301 0.15483,0.154844 -2.0881,2.249014 -4.98432,4.653665 z m -22.3799,18.14067 c -1.4692,1.121823 -3.0892,2.676762 -3.60002,3.455439 -1.41094,2.150835 -3.37006,3.381883 -3.93289,2.471244 -0.53103,-0.859264 -0.1101,-2.250626 0.68075,-2.250626 0.30267,0 2.42178,-1.529211 4.70915,-3.398294 2.28737,-1.869057 4.30629,-3.398293 4.48655,-3.398293 1.00155,0 0.003,1.327706 -2.34354,3.12053 z M 60.111046,174.22307 c -3.150807,1.47854 -5.853331,2.56365 -6.005638,2.41133 -0.152199,-0.15229 1.816697,-1.32956 4.375553,-2.61613 5.593115,-2.81214 7.358825,-3.51418 7.358825,-2.92581 0,0.24329 -2.577934,1.65205 -5.72874,3.13061 z"
       id="path1" /></g></svg>
